HIERARCHY
ROOT hips
{
  OFFSET 4.514983404067499e-9 10.105397940993303 1.318478203070619
  CHANNELS 6 Xposition Yposition Zposition Yrotation Xrotation Zrotation
  JOINT spine
  {
    OFFSET -3.891297943093837e-9 0.5743022203102706 0
    CHANNELS 3 Yrotation Xrotation Zrotation
    JOINT chest
    {
      OFFSET 0 1.2550312016247926 0
      CHANNELS 3 Yrotation Xrotation Zrotation
      JOINT upperChest
      {
        OFFSET 0 1.2059856050120283 0
        CHANNELS 3 Yrotation Xrotation Zrotation
        JOINT neck
        {
          OFFSET 0 1.5290392449770056 0
          CHANNELS 3 Yrotation Xrotation Zrotation
          JOINT head
          {
            OFFSET 0 0.8186276690878121 0
            CHANNELS 3 Yrotation Xrotation Zrotation
            JOINT leftEye
            {
              OFFSET 0.4540883942785781 -0.2684596961258452 0.6133497327236779
              CHANNELS 3 Yrotation Xrotation Zrotation
              End Site
              {
                OFFSET 0.4540883942785781 -0.2684596961258452 0.6133497327236779
              }
            }
            JOINT rightEye
            {
              OFFSET -0.4540889229417456 -0.26846010916843954 0.6133525398671689
              CHANNELS 3 Yrotation Xrotation Zrotation
              End Site
              {
                OFFSET -0.4540889229417456 -0.26846010916843954 0.6133525398671689
              }
            }
          }
        }
        JOINT leftShoulder
        {
          OFFSET 1.1700010731725468 -0.4176065950681176 0
          CHANNELS 3 Yrotation Xrotation Zrotation
          JOINT leftUpperArm
          {
            OFFSET 1.1803911524554955 0 0
            CHANNELS 3 Yrotation Xrotation Zrotation
            JOINT leftLowerArm
            {
              OFFSET 2.4406171707858904 0 0
              CHANNELS 3 Yrotation Xrotation Zrotation
              JOINT leftHand
              {
                OFFSET 2.3832177068873874 0 0
                CHANNELS 3 Yrotation Xrotation Zrotation
                JOINT leftIndexProximal
                {
                  OFFSET 0.7310175006235151 0.08192774217833776 0.20404791572985242
                  CHANNELS 3 Yrotation Xrotation Zrotation
                  JOINT leftIndexIntermediate
                  {
                    OFFSET 0.3688845439429529 -0.010662034455094949 -0.014226011560394963
                    CHANNELS 3 Yrotation Xrotation Zrotation
                    JOINT leftIndexDistal
                    {
                      OFFSET 0.2271119941018298 -0.007897656478952575 -0.007580683836364496
                      CHANNELS 3 Yrotation Xrotation Zrotation
                      End Site
                      {
                        OFFSET 0.2271119941018298 -0.007897656478952575 -0.007580683836364496
                      }
                    }
                  }
                }
                JOINT leftLittleProximal
                {
                  OFFSET 0.678269929308182 0.08192620621401336 -0.323876516389586
                  CHANNELS 3 Yrotation Xrotation Zrotation
                  JOINT leftLittleIntermediate
                  {
                    OFFSET 0.34904545821382604 -0.0000017106393073174075 8.629360392919949e-9
                    CHANNELS 3 Yrotation Xrotation Zrotation
                    JOINT leftLittleDistal
                    {
                      OFFSET 0.2011060672849896 0.0031247840072243793 0.0038660318003989197
                      CHANNELS 3 Yrotation Xrotation Zrotation
                      End Site
                      {
                        OFFSET 0.2011060672849896 0.0031247840072243793 0.0038660318003989197
                      }
                    }
                  }
                }
                JOINT leftMiddleProximal
                {
                  OFFSET 0.7368181082522638 0.0819260272939426 0.02272335773438093
                  CHANNELS 3 Yrotation Xrotation Zrotation
                  JOINT leftMiddleIntermediate
                  {
                    OFFSET 0.41136739116025356 -0.0000015892429323649537 5.27860346960507e-8
                    CHANNELS 3 Yrotation Xrotation Zrotation
                    JOINT leftMiddleDistal
                    {
                      OFFSET 0.25378150303820757 -0.0000015332469289752737 1.3442958385345705e-8
                      CHANNELS 3 Yrotation Xrotation Zrotation
                      End Site
                      {
                        OFFSET 0.25378150303820757 -0.0000015332469289752737 1.3442958385345705e-8
                      }
                    }
                  }
                }
                JOINT leftRingProximal
                {
                  OFFSET 0.7284256823094712 0.08192611199801392 -0.1508405069143483
                  CHANNELS 3 Yrotation Xrotation Zrotation
                  JOINT leftRingIntermediate
                  {
                    OFFSET 0.381593741461262 -0.0000016975471202052006 6.592486757883709e-8
                    CHANNELS 3 Yrotation Xrotation Zrotation
                    JOINT leftRingDistal
                    {
                      OFFSET 0.22014536669820362 -0.0027420652959939673 -0.005037497035641991
                      CHANNELS 3 Yrotation Xrotation Zrotation
                      End Site
                      {
                        OFFSET 0.22014536669820362 -0.0027420652959939673 -0.005037497035641991
                      }
                    }
                  }
                }
                JOINT leftThumbProximal
                {
                  OFFSET 0.10842212958334652 -0.16573713992498873 -0.07779936144556289
                  CHANNELS 3 Yrotation Xrotation Zrotation
                  JOINT leftThumbIntermediate
                  {
                    OFFSET 0.40720553822379024 -0.01751267955631075 0.31852684427382305
                    CHANNELS 3 Yrotation Xrotation Zrotation
                    JOINT leftThumbDistal
                    {
                      OFFSET 0.23412859218032667 -0.01859690713588802 0.2146635043319005
                      CHANNELS 3 Yrotation Xrotation Zrotation
                      End Site
                      {
                        OFFSET 0.23412859218032667 -0.01859690713588802 0.2146635043319005
                      }
                    }
                  }
                }
              }
            }
          }
        }
        JOINT rightShoulder
        {
          OFFSET -1.1700037144859516 -0.41760703856471126 0
          CHANNELS 3 Yrotation Xrotation Zrotation
          JOINT rightUpperArm
          {
            OFFSET -1.1803910289368023 0 0
            CHANNELS 3 Yrotation Xrotation Zrotation
            JOINT rightLowerArm
            {
              OFFSET -2.440617418222133 0 0
              CHANNELS 3 Yrotation Xrotation Zrotation
              JOINT rightHand
              {
                OFFSET -2.3832181162662343 0 0
                CHANNELS 3 Yrotation Xrotation Zrotation
                JOINT rightIndexProximal
                {
                  OFFSET -0.7310168852843362 0.08192787643494381 0.20404785424302163
                  CHANNELS 3 Yrotation Xrotation Zrotation
                  JOINT rightIndexIntermediate
                  {
                    OFFSET -0.3688846010723953 -0.01066191355993129 -0.014226020535245201
                    CHANNELS 3 Yrotation Xrotation Zrotation
                    JOINT rightIndexDistal
                    {
                      OFFSET -0.22711216276130997 -0.007898902439410271 -0.007580718044857868
                      CHANNELS 3 Yrotation Xrotation Zrotation
                      End Site
                      {
                        OFFSET -0.22711216276130997 -0.007898902439410271 -0.007580718044857868
                      }
                    }
                  }
                }
                JOINT rightLittleProximal
                {
                  OFFSET -0.6782685897119165 0.08192501740206293 -0.3238766118101876
                  CHANNELS 3 Yrotation Xrotation Zrotation
                  JOINT rightLittleIntermediate
                  {
                    OFFSET -0.34904682243945895 -2.664019085329983e-7 3.792712677253007e-8
                    CHANNELS 3 Yrotation Xrotation Zrotation
                    JOINT rightLittleDistal
                    {
                      OFFSET -0.20110609302945537 0.0031260842677420797 0.0038661724369087186
                      CHANNELS 3 Yrotation Xrotation Zrotation
                      End Site
                      {
                        OFFSET -0.20110609302945537 0.0031260842677420797 0.0038661724369087186
                      }
                    }
                  }
                }
                JOINT rightMiddleProximal
                {
                  OFFSET -0.7368168209984411 0.08192485183145659 0.022723294831187846
                  CHANNELS 3 Yrotation Xrotation Zrotation
                  JOINT rightMiddleIntermediate
                  {
                    OFFSET -0.4113687575187084 -9.03141548214137e-8 4.759541079313312e-8
                    CHANNELS 3 Yrotation Xrotation Zrotation
                    JOINT rightMiddleDistal
                    {
                      OFFSET -0.2537822083525749 -9.554208624251714e-8 -1.6364827826187422e-9
                      CHANNELS 3 Yrotation Xrotation Zrotation
                      End Site
                      {
                        OFFSET -0.2537822083525749 -9.554208624251714e-8 -1.6364827826187422e-9
                      }
                    }
                  }
                }
                JOINT rightRingProximal
                {
                  OFFSET -0.7284243957721679 0.08192492753028224 -0.15084062217729294
                  CHANNELS 3 Yrotation Xrotation Zrotation
                  JOINT rightRingIntermediate
                  {
                    OFFSET -0.381595106800805 -2.5662436442530634e-7 2.929475539925619e-8
                    CHANNELS 3 Yrotation Xrotation Zrotation
                    JOINT rightRingDistal
                    {
                      OFFSET -0.22014544912608125 -0.002738002524970362 -0.0050375115645966
                      CHANNELS 3 Yrotation Xrotation Zrotation
                      End Site
                      {
                        OFFSET -0.22014544912608125 -0.002738002524970362 -0.0050375115645966
                      }
                    }
                  }
                }
                JOINT rightThumbProximal
                {
                  OFFSET -0.10842026863657162 -0.16573778435706465 -0.07779917642461898
                  CHANNELS 3 Yrotation Xrotation Zrotation
                  JOINT rightThumbIntermediate
                  {
                    OFFSET -0.40720600760521597 -0.017512298079938038 0.3185267362029824
                    CHANNELS 3 Yrotation Xrotation Zrotation
                    JOINT rightThumbDistal
                    {
                      OFFSET -0.2341289751103648 -0.018594162598156494 0.21466399510514025
                      CHANNELS 3 Yrotation Xrotation Zrotation
                      End Site
                      {
                        OFFSET -0.2341289751103648 -0.018594162598156494 0.21466399510514025
                      }
                    }
                  }
                }
              }
            }
          }
        }
      }
    }
  }
  JOINT leftUpperLeg
  {
    OFFSET -0.8565189721517369 0.4427277044191169 0
    CHANNELS 3 Yrotation Xrotation Zrotation
    JOINT leftLowerLeg
    {
      OFFSET 0 -3.918486704769693 0
      CHANNELS 3 Yrotation Xrotation Zrotation
      JOINT leftFoot
      {
        OFFSET 6.174701361744139e-7 -0.055233446196002234 4.612027801972084
        CHANNELS 3 Yrotation Xrotation Zrotation
        JOINT leftToes
        {
          OFFSET -3.4372540951010944e-7 -0.705284859504459 1.2256624571888697
          CHANNELS 3 Yrotation Xrotation Zrotation
          End Site
          {
            OFFSET -3.4372540951010944e-7 -0.705284859504459 1.2256624571888697
          }
        }
      }
    }
  }
  JOINT rightUpperLeg
  {
    OFFSET 0.8565189732197466 0.44272769569168136 0
    CHANNELS 3 Yrotation Xrotation Zrotation
    JOINT rightLowerLeg
    {
      OFFSET 0 -3.918486692649319 0
      CHANNELS 3 Yrotation Xrotation Zrotation
      JOINT rightFoot
      {
        OFFSET 6.995136552362391e-7 -0.05523244834012664 4.612028499942008
        CHANNELS 3 Yrotation Xrotation Zrotation
        JOINT rightToes
        {
          OFFSET -4.2566694985479714e-7 -0.7052846587611067 1.22566236096697
          CHANNELS 3 Yrotation Xrotation Zrotation
          End Site
          {
            OFFSET -4.2566694985479714e-7 -0.7052846587611067 1.22566236096697
          }
        }
      }
    }
  }
}
MOTION
Frames: 4
Frame Time: 0.03333333333333333
0.004563780501484871 -0.6554877771139083 -0.08205614238977432 11.357187066900634 -1.7923014893294535 -3.483302633874547 0.8281580933027717 6.484978351586758 1.2232788514517654 4.216516828056311 25.808524914734225 5.54950868510035 0 0 0 -8.23285871045969 -14.978893624731041 0.618705823440835 -5.640648975356066 -14.259994775813555 1.7306683719661635 0 0 0 0 0 0 5.799765455076176 1.323468227146631 15.957936394509632 -14.297989480787205 -27.02859027448834 -78.08478204265839 -66.60413038996214 2.7044277747108643 0.6799613485291605 -13.189313633615875 7.318399318699009 -6.064669228711837 13.197626142534448 6.615757249155867 -79.8575707403995 -5.456642862024719 3.0708673903287016 -93.6700721294342 -1.281281483810888e-10 1.793762613445802e-24 1.6042536111691759e-12 -2.271333192537917 -14.766902703424096 -78.26357979831518 -1.9087509825694247 -10.919564909762872 -82.51546572877939 0.000002245999017412741 -0.000014039357969206363 -0.000012736258355773212 7.930914827901987 -1.899467074105327 -83.11889762360451 -3.761394118276385 -3.407021773945429 -94.94738126355024 -0.000005007422543841229 0.0000020744587267783142 6.467778169723021e-8 -2.66012032173253 -7.4359801821543305 -85.46153477671665 1.7702981193667244 -9.244366178706194 -82.4495161277198 0.000004210547137952651 0.0000034014160625433384 5.61385101718028e-7 -4.849958649280959 34.50018738463103 -11.790905614272287 17.908260511680023 5.079968077681585 -4.374526829110075 0.000017802815807806854 0.000004620945151387756 0.000007173562871201013 -15.014709877202206 7.978319125996089 -9.834953384799455 20.15539559165939 7.9329224878430535 70.30759882545254 79.23227769989157 1.0528607694988055 -0.7263383948550969 14.104084714254727 -6.588655045007661 5.860211013043388 -12.104344429438068 8.495866175799772 64.89689128763915 6.825399827599342 -0.25317798051742557 106.56419907602307 3.933694872703174e-10 3.1805546814635168e-15 -4.874754472204794e-12 -2.2014071966431716 -14.82571776281529 63.23198845539539 -2.2981642301975573 -7.294807520116862 97.33485442106448 1.6628260911929426e-9 -3.1805543023118527e-15 -2.179830267765673e-11 -7.631834155889121 -0.30917390853776433 66.95332421777273 4.187473341460664 -5.6970732477484205 108.96401054973978 1.215836204053751e-9 -3.180554491887685e-15 -1.6036856771618462e-11 0.4413244465056345 -6.4844795446143335 69.56732737294692 -3.762117765975172 -8.274795805705104 96.79832894941588 -0.0000047699469628829435 -7.265100354488819e-7 -0.0000012823225000317363 -5.663445338015772 42.02243112307216 -3.511280964360449 -3.7916841676006316 -4.7272886291319764 7.118913678921455 4.490318231231578e-8 -0.000008128970964187776 0.00000296293064704955 -1.5388929165701086 0.9809260494190999 13.56945445658703 0.32687379163207214 32.02583704984308 -0.8945967494142005 -2.300458618163191 -20.477016035052856 -8.50390304298724 -0.046728150251492864 -11.829527729890692 0.5037916967941398 -6.190166062002993 -28.153766111681126 -3.0852447136289025 0.30518061431653776 26.98226804118502 1.2208250121476558 -12.74428376277375 4.408807648735077 4.1139917578802425 0.009712313795794505 -0.00014101307561439685 -0.00022631484135412437
0.004388055298477411 -0.6553657068014083 -0.07983516901731491 11.44760806806338 -1.7727689019442576 -3.55627204485472 0.8124421505873011 6.4989928382703 1.2473026365820228 4.169209048379519 25.864419846536645 5.630671639544372 0 0 0 -7.993421021635815 -15.154232919941743 0.9194390647954154 -5.124981482615306 -14.28430938273145 1.1897609476271704 0 0 0 0 0 0 5.812417283579869 1.3240190581532854 16.013558296416775 -14.201534076672239 -27.079286813025423 -78.2053839566172 -66.5525838715935 2.69354759375703 0.6797041129123058 -12.946627781084365 7.242238290423969 -5.8764101383691205 13.178977752520042 6.607207907095278 -79.93002229764123 -5.452480569519708 3.061336091007669 -93.73825585334056 -1.281281483810888e-10 1.793762613445802e-24 1.6042536111691759e-12 -2.2666504945855617 -14.773565443163287 -78.28654280702759 -1.9085075537782632 -10.918538011904092 -82.57257832793913 0.000002245999017412741 -0.000014039357969206363 -0.000012736258355773212 7.9288531729619685 -1.8968351533274035 -83.1524643562789 -3.761718626114706 -3.407691890225681 -94.95616229861334 -0.000005007422543841229 0.0000020744587267783142 6.467778169723021e-8 -2.6594122362061174 -7.438502101470692 -85.47387742469951 1.7766970923006387 -9.24268806674279 -82.53810267063875 0.000004210547137952651 0.0000034014160625433384 5.61385101718028e-7 -4.955466736156065 34.42912892646837 -11.809443124443469 17.96240624555749 5.042073725133469 -4.372526294303389 0.000017802815807806854 0.000004620945151387756 0.000007173562871201013 -15.015161963515881 7.977425972327918 -9.814465489934062 20.16809483531729 7.879003895003733 70.21591005123248 79.19596958673696 1.0524089402677936 -0.7262428372543182 14.034724854522622 -6.680745522563705 5.914308734486472 -12.089250435255892 8.509542833422298 65.00205132993825 6.824217168933246 -0.25136257334449386 106.55364780069016 3.933694872703174e-10 3.1805546814635168e-15 -4.874754472204794e-12 -2.217485608675478 -14.842124258011081 63.309893887419605 -2.2932374117014827 -7.298160977746271 97.29147344995448 1.6628260911929426e-9 -3.1805543023118527e-15 -2.179830267765673e-11 -7.63306016314011 -0.3101741456543161 66.93964167453646 4.187327184433297 -5.695734751098104 108.94797815157486 1.215836204053751e-9 -3.180554491887685e-15 -1.6036856771618462e-11 0.44025677220729775 -6.488772909679648 69.59309918800516 -3.763762822899751 -8.27382348131355 96.81668932143344 -0.0000047699469628829435 -7.265100354488819e-7 -0.0000012823225000317363 -5.572448110546102 42.03327656900841 -3.4029176017182157 -3.825433632720934 -4.789514390117701 7.128866249930382 4.490318231231578e-8 -0.000008128970964187776 0.00000296293064704955 -2.006128404677912 1.0852928452678148 13.526026123763485 0.3223414973045923 32.00581937474098 -0.8969758155237005 -1.8580496779763371 -20.507669962375644 -8.636843405985841 -0.07385759665627457 -11.82218044850801 0.5281210092120089 -6.30201918829094 -28.11292915756463 -3.002751523906305 0.3039264920755337 26.96603006945854 1.2204661564383774 -12.770679728671716 4.345398629480457 4.13498383721229 0.009516177648884164 -0.00014620719966961104 -0.015172677153970448
0.0033764562103897333 -0.6546323312520919 -0.07478160411119461 11.703681631059341 -1.7253338683705706 -3.7034088202791353 0.7805269490361262 6.528742533558288 1.3057143500354556 4.081914129017281 25.981902116670334 5.837806295585259 0 0 0 -7.040912687209003 -15.564976989776326 1.4577357011159797 -3.5953480752666325 -14.362450199881707 -0.05513951798084642 0 0 0 0 0 0 5.86438451941088 1.319791967058743 16.174765304513066 -14.070322007278552 -27.254252254239713 -78.46400804417492 -66.35149759322769 2.6746255668235226 0.6786682468957581 -12.294319365934777 7.195623279659495 -5.536400272548564 13.152170463473574 6.605919115410691 -80.04058907087236 -5.444614142002156 3.0443727210252307 -93.86886086120708 -1.281281483810888e-10 1.793762613445802e-24 1.6042536111691759e-12 -2.2567134708603853 -14.787756894713661 -78.33523083349041 -1.9079948620433098 -10.916524224209368 -82.687453821177 0.000002245999017412741 -0.000014039357969206363 -0.000012736258355773212 7.926334803156989 -1.893648834601149 -83.19326572599948 -3.763788241798576 -3.4121139423878897 -95.01397041436198 -0.000005007422543841229 0.0000020744587267783142 6.467778169723021e-8 -2.657633222867446 -7.444841834977706 -85.50463267538761 1.788957631484068 -9.239438261315547 -82.70782241182569 0.000004210547137952651 0.0000034014160625433384 5.61385101718028e-7 -5.1347632025398395 34.32679161575345 -11.866961015693834 18.05357175184018 4.975914858182264 -4.366307874912567 0.000017802815807806854 0.000004620945151387756 0.000007173562871201013 -15.015632373742948 7.975453454536968 -9.765743744046096 20.262472049198088 7.80635983079862 69.94535342091311 79.15686236050561 1.051933201410441 -0.7261625523007641 14.050037373115574 -6.985827205922177 5.988153583348623 -12.051456094089799 8.51549603973322 65.20380375097022 6.823053160702737 -0.2496148286273175 106.54351686577803 3.933694872703174e-10 3.1805546814635168e-15 -4.874754472204794e-12 -2.2422725355665376 -14.867388244179024 63.429963363172135 -2.2942200324254016 -7.297483570393556 97.30014489355042 1.6628260911929426e-9 -3.1805543023118527e-15 -2.179830267765673e-11 -7.634265800307198 -0.31116752589467767 66.92614613785297 4.186995173693035 -5.692567417117968 108.91012465273485 1.215836204053751e-9 -3.180554491887685e-15 -1.6036856771618462e-11 0.438288537301435 -6.49662505478235 69.64033579329292 -3.7654541558142363 -8.27283131604049 96.83558037309778 -0.0000047699469628829435 -7.265100354488819e-7 -0.0000012823225000317363 -5.420698287928058 42.06299034261152 -3.209285680372966 -3.8842386670142877 -4.900183653594135 7.140388289101305 4.490318231231578e-8 -0.000008128970964187776 0.00000296293064704955 -3.099658955159215 1.3118410243655034 13.408360197795206 0.3182212879477736 31.932898544790525 -0.8989404656904177 -0.85565577951701 -20.56075828162363 -8.894041527272401 -0.14484073639653586 -11.802455503948693 0.5917251225446308 -6.564442528773871 -28.023452012007276 -2.8408025405061785 0.30067030517686405 26.921187105894244 1.219219388628619 -12.864871944667842 4.181109948937481 4.188374162343402 0.009959592983382254 -0.00014051865396182971 -0.05860001252317334
0.0006860973662696779 -0.6527755273580489 -0.06827786564826965 12.101959263485522 -1.6317846902460218 -3.819605994584165 0.7585286160782568 6.554369764041137 1.3773290461181387 4.049043710615605 26.079612692448052 6.11339447334711 0 0 0 -5.1133201420690755 -16.00808631214952 1.723507880383132 -1.1492406562452306 -14.496360016274437 -1.4849637791463337 0 0 0 0 0 0 5.963806974790323 1.3098340243433355 16.405383091322165 -14.108237371662003 -27.5849038808353 -78.67585273636718 -65.97316477729558 2.6726710723429554 0.6766689809155025 -11.724960141042088 7.476416159371308 -5.443705010327182 13.137539098074075 6.630799104434846 -80.15303974841125 -5.443330949755082 3.03201960922546 -93.97575247055651 -1.281281483810888e-10 1.793762613445802e-24 1.6042536111691759e-12 -2.245202094364459 -14.80414108711078 -78.39149132628698 -1.9075188933420928 -10.914520014690563 -82.8011531455138 0.000002245999017412741 -0.000014039357969206363 -0.000012736258355773212 7.920784435669018 -1.9030766818104705 -83.25691938143255 -3.7729615663829876 -3.4319446839736423 -95.27341324750749 -0.000005007422543841229 0.0000020744587267783142 6.467778169723021e-8 -2.6569805988324173 -7.4471339084101995 -85.51585777914067 1.8030557763058637 -9.235669493369212 -82.90309493362153 0.000004210547137952651 0.0000034014160625433384 5.61385101718028e-7 -5.205784409639178 34.26704502895463 -11.875905986782142 18.04183986689434 4.968080178977085 -4.346193923512618 0.000017802815807806854 0.000004620945151387756 0.000007173562871201013 -15.01568068261435 7.973263695055918 -9.704338184290537 20.502827617238598 7.831012058690236 69.52414996595567 79.1836218791911 1.0522531002930693 -0.7262289722789544 14.340557029715658 -7.489703045723835 5.903118941443913 -12.023150849481024 8.53127472920382 65.38289035474915 6.823231500105625 -0.24988838563855553 106.54511611490683 3.933694872703174e-10 3.1805546814635168e-15 -4.874754472204794e-12 -2.2675812817033205 -14.893065108992937 63.552273669942025 -2.2965285186684694 -7.295904965625018 97.32048041219927 1.6628260911929426e-9 -3.1805543023118527e-15 -2.179830267765673e-11 -7.638961379172299 -0.3078072639253219 66.89879246068755 4.186532905693885 -5.687700404671587 108.85183819085378 1.215836204053751e-9 -3.180554491887685e-15 -1.6036856771618462e-11 0.43607161991024995 -6.505351666014058 69.69283409687918 -3.7652260202010295 -8.272946924735024 96.83306594138026 -0.0000047699469628829435 -7.265100354488819e-7 -0.0000012823225000317363 -5.308956462974584 42.10747892051122 -3.042015126379802 -3.927848484552808 -4.986673767887253 7.13730292113207 4.490318231231578e-8 -0.000008128970964187776 0.00000296293064704955 -4.340207642338402 1.5185077904722561 13.268197002940894 0.30357535079727177 31.796969459702456 -0.9075351195984239 0.1826044239191988 -20.57555117129593 -9.195142236875228 -0.22651185879849814 -11.774528650687676 0.6645355414560185 -6.860622927029457 -27.945905224895135 -2.724460832034132 0.2962656601630299 26.869773043216817 1.216993017088347 -13.051100429790893 3.9697196779495414 4.274454105108834 0.07995379475035827 0.02376216377011419 -0.09195337646416414
